<svg width="40" height="40" viewBox="0 0 40 40" fill="none" xmlns="http://www.w3.org/2000/svg">
<g clip-path="url(#clip0_3417_324)">
<path d="M11.2 4C8.87188 4 6.8875 5.65625 6.525 7.9C6.51562 7.95312 6.48125 7.99688 6.475 8.05H6.5C6.47188 8.17188 6.44062 8.28438 6.425 8.4C6.18125 8.56875 5.94688 8.75 5.75 8.95C4.80938 9.9 4.4125 11.0938 4.125 12.075C4.12188 12.0813 4.12812 12.0938 4.125 12.1C3.0875 15.2906 1.22812 22.8438 0.8 24.575C0.3 25.6188 0 26.7688 0 28C0 32.4094 3.59062 36 8 36C12.3094 36 15.8156 32.5719 15.975 28.3C16.8813 28.9688 18.1938 29.6 20 29.6C21.8063 29.6 23.1188 28.9688 24.025 28.3C24.1844 32.5719 27.6906 36 32 36C36.4094 36 40 32.4094 40 28C40 27.0969 39.8531 26.2344 39.575 25.425C39.4438 24.9 37.0812 15.5125 36.05 12.1V12.075C35.725 11.1 35.2938 9.90625 34.35 8.95C34.1156 8.7125 33.85 8.49375 33.55 8.3C33.5344 8.21562 33.5219 8.1375 33.5 8.05H33.525C33.5187 7.99688 33.4844 7.95312 33.475 7.9C33.1125 5.65625 31.1281 4 28.8 4C26.1406 4 24 6.14062 24 8.8C24 9.3875 24.0969 9.95625 24.275 10.475C23.9031 10.9063 23.5906 11.2969 23.375 11.5C23.2844 11.5844 23.2781 11.5813 23.25 11.6C22.3406 10.9313 21.2438 10.475 20.075 10.475C18.9094 10.475 17.7625 10.8938 16.875 11.6C16.8438 11.5813 16.8406 11.5844 16.75 11.5C16.5156 11.2813 16.1625 10.8531 15.75 10.375C15.9094 9.88125 16 9.35313 16 8.8C16 6.14062 13.8594 4 11.2 4ZM11.2 5.6C13.0219 5.6 14.4 6.97812 14.4 8.8C14.4 8.86875 14.3781 8.93125 14.375 9C13.3594 8.12812 12.0531 7.35 10.325 7.35C9.55 7.35 8.85625 7.425 8.25 7.575C8.69063 6.4125 9.83438 5.6 11.2 5.6ZM28.8 5.6C30.1531 5.6 31.275 6.40312 31.725 7.55C31.1656 7.42188 30.55 7.35 29.85 7.35C28.0563 7.35 26.6688 8.18438 25.625 9.1C25.6156 8.99688 25.6 8.9 25.6 8.8C25.6 6.97812 26.9781 5.6 28.8 5.6ZM10.325 8.95C11.9219 8.95 13.025 9.80938 13.95 10.775C13.9594 11.1781 14.2719 11.5125 14.675 11.55C15.0156 11.9469 15.3406 12.3375 15.675 12.65C15.9031 12.8625 16.1344 13.0656 16.5 13.175C16.8656 13.2844 17.3844 13.2031 17.7 12.95L17.725 12.925C18.2594 12.45 19.2406 12.075 20.075 12.075C20.9094 12.075 21.7875 12.4188 22.45 12.95V12.925H22.475C22.7844 13.1781 23.2938 13.2844 23.65 13.175C24.0156 13.0625 24.225 12.8625 24.45 12.65C24.7875 12.3313 25.1219 11.9313 25.475 11.525C25.7531 11.4406 25.9656 11.2094 26.025 10.925C26.9906 9.89688 28.1656 8.95 29.85 8.95C30.9031 8.95 31.6531 9.10938 32.225 9.375C32.3219 9.47188 32.4438 9.54063 32.575 9.575C32.6 9.58438 32.625 9.59375 32.65 9.6C32.8656 9.74062 33.0594 9.90625 33.225 10.075C33.8563 10.7156 34.2125 11.6125 34.525 12.55C34.5281 12.5563 34.5219 12.5688 34.525 12.575C35.1406 14.6156 36.1656 18.4938 37 21.75C35.6281 20.6469 33.8906 20 32 20C28.375 20 25.3031 22.4344 24.325 25.75C24.2656 25.8 24.2156 25.8594 24.175 25.925C24.175 25.925 23.1438 28 20 28C16.8563 28 15.825 25.925 15.825 25.925C15.7844 25.85 15.7344 25.7844 15.675 25.725C14.6906 22.4219 11.6188 20 8 20C6.1875 20 4.51875 20.6063 3.175 21.625C4.00312 18.375 5.00625 14.5563 5.65 12.575V12.55C5.92188 11.6188 6.24375 10.7156 6.875 10.075C7.50625 9.43438 8.475 8.95 10.325 8.95ZM20 20C18.2406 20 16.8 21.4406 16.8 23.2C16.8 24.9594 18.2406 26.4 20 26.4C21.7594 26.4 23.2 24.9594 23.2 23.2C23.2 21.4406 21.7594 20 20 20ZM8 21.6C11.5438 21.6 14.4 24.4563 14.4 28C14.4 31.5438 11.5438 34.4 8 34.4C4.45625 34.4 1.6 31.5438 1.6 28C1.6 27.5188 1.65 27.05 1.75 26.6C1.90938 26.4781 2.01562 26.3 2.05 26.1C2.05 26.1 2.25938 25.2375 2.3 25.075C3.35938 23.0094 5.5125 21.6 8 21.6ZM20 21.6C20.8938 21.6 21.6 22.3063 21.6 23.2C21.6 24.0938 20.8938 24.8 20 24.8C19.1063 24.8 18.4 24.0938 18.4 23.2C18.4 22.3063 19.1063 21.6 20 21.6ZM32 21.6C34.7875 21.6 37.1437 23.3719 38.025 25.85C38.0281 25.8625 38.1 26.125 38.1 26.125C38.1219 26.2063 38.1562 26.2812 38.2 26.35C38.3406 26.875 38.4 27.4281 38.4 28C38.4 31.5438 35.5438 34.4 32 34.4C28.4563 34.4 25.6 31.5438 25.6 28C25.6 24.4563 28.4563 21.6 32 21.6ZM3.925 27.175C3.89062 27.1813 3.85625 27.1906 3.825 27.2C3.45312 27.2844 3.19062 27.6188 3.2 28C3.2 30.6594 5.34062 32.8 8 32.8C8.2875 32.8031 8.55625 32.6531 8.70312 32.4031C8.84688 32.1531 8.84688 31.8469 8.70312 31.5969C8.55625 31.3469 8.2875 31.1969 8 31.2C6.17812 31.2 4.8 29.8219 4.8 28C4.80938 27.7688 4.71562 27.5469 4.55 27.3906C4.38125 27.2313 4.15312 27.1531 3.925 27.175ZM28.725 27.175C28.6906 27.1813 28.6562 27.1906 28.625 27.2C28.2531 27.2844 27.9906 27.6188 28 28C28 30.6594 30.1406 32.8 32.8 32.8C33.0875 32.8031 33.3563 32.6531 33.5031 32.4031C33.6469 32.1531 33.6469 31.8469 33.5031 31.5969C33.3563 31.3469 33.0875 31.1969 32.8 31.2C30.9781 31.2 29.6 29.8219 29.6 28C29.6094 27.7688 29.5156 27.5469 29.35 27.3906C29.1813 27.2313 28.9531 27.1531 28.725 27.175Z" fill="#216E7A"/>
<circle opacity="0.8" cx="8.00156" cy="28" r="6.4" fill="#216E7A"/>
<circle opacity="0.8" cx="31.9996" cy="28" r="6.4" fill="#216E7A"/>
<path d="M4 28C4.53518 30.7772 5.38628 31.6872 8 32" stroke="white" stroke-width="1.6" stroke-linecap="round"/>
<path d="M28 28C28.5352 30.7772 29.3863 31.6872 32 32" stroke="white" stroke-width="1.6" stroke-linecap="round"/>
</g>
<defs>
<clipPath id="clip0_3417_324">
<rect width="40" height="40" fill="white"/>
</clipPath>
</defs>
</svg>
