<svg width="213" height="213" viewBox="0 0 213 213" fill="none" xmlns="http://www.w3.org/2000/svg">
<g filter="url(#filter0_d_18923_1862)">
<circle cx="106.5" cy="104.5" r="56.5" fill="white"/>
</g>
<g clip-path="url(#clip0_18923_1862)">
<path d="M98.2 89C95.8719 89 93.8875 90.6563 93.525 92.9C93.5156 92.9531 93.4813 92.9969 93.475 93.05H93.5C93.4719 93.1719 93.4406 93.2844 93.425 93.4C93.1813 93.5688 92.9469 93.75 92.75 93.95C91.8094 94.9 91.4125 96.0938 91.125 97.075C91.1219 97.0813 91.1281 97.0938 91.125 97.1C90.0875 100.291 88.2281 107.844 87.8 109.575C87.3 110.619 87 111.769 87 113C87 117.409 90.5906 121 95 121C99.3094 121 102.816 117.572 102.975 113.3C103.881 113.969 105.194 114.6 107 114.6C108.806 114.6 110.119 113.969 111.025 113.3C111.184 117.572 114.691 121 119 121C123.409 121 127 117.409 127 113C127 112.097 126.853 111.234 126.575 110.425C126.444 109.9 124.081 100.512 123.05 97.1V97.075C122.725 96.1 122.294 94.9063 121.35 93.95C121.116 93.7125 120.85 93.4938 120.55 93.3C120.534 93.2156 120.522 93.1375 120.5 93.05H120.525C120.519 92.9969 120.484 92.9531 120.475 92.9C120.112 90.6563 118.128 89 115.8 89C113.141 89 111 91.1406 111 93.8C111 94.3875 111.097 94.9563 111.275 95.475C110.903 95.9063 110.591 96.2969 110.375 96.5C110.284 96.5844 110.278 96.5813 110.25 96.6C109.341 95.9313 108.244 95.475 107.075 95.475C105.909 95.475 104.763 95.8938 103.875 96.6C103.844 96.5813 103.841 96.5844 103.75 96.5C103.516 96.2813 103.163 95.8531 102.75 95.375C102.909 94.8813 103 94.3531 103 93.8C103 91.1406 100.859 89 98.2 89ZM98.2 90.6C100.022 90.6 101.4 91.9781 101.4 93.8C101.4 93.8688 101.378 93.9313 101.375 94C100.359 93.1281 99.0531 92.35 97.325 92.35C96.55 92.35 95.8563 92.425 95.25 92.575C95.6906 91.4125 96.8344 90.6 98.2 90.6ZM115.8 90.6C117.153 90.6 118.275 91.4031 118.725 92.55C118.166 92.4219 117.55 92.35 116.85 92.35C115.056 92.35 113.669 93.1844 112.625 94.1C112.616 93.9969 112.6 93.9 112.6 93.8C112.6 91.9781 113.978 90.6 115.8 90.6ZM97.325 93.95C98.9219 93.95 100.025 94.8094 100.95 95.775C100.959 96.1781 101.272 96.5125 101.675 96.55C102.016 96.9469 102.341 97.3375 102.675 97.65C102.903 97.8625 103.134 98.0656 103.5 98.175C103.866 98.2844 104.384 98.2031 104.7 97.95L104.725 97.925C105.259 97.45 106.241 97.075 107.075 97.075C107.909 97.075 108.788 97.4188 109.45 97.95V97.925H109.475C109.784 98.1781 110.294 98.2844 110.65 98.175C111.016 98.0625 111.225 97.8625 111.45 97.65C111.788 97.3313 112.122 96.9313 112.475 96.525C112.753 96.4406 112.966 96.2094 113.025 95.925C113.991 94.8969 115.166 93.95 116.85 93.95C117.903 93.95 118.653 94.1094 119.225 94.375C119.322 94.4719 119.444 94.5406 119.575 94.575C119.6 94.5844 119.625 94.5938 119.65 94.6C119.866 94.7406 120.059 94.9063 120.225 95.075C120.856 95.7156 121.213 96.6125 121.525 97.55C121.528 97.5563 121.522 97.5688 121.525 97.575C122.141 99.6156 123.166 103.494 124 106.75C122.628 105.647 120.891 105 119 105C115.375 105 112.303 107.434 111.325 110.75C111.266 110.8 111.216 110.859 111.175 110.925C111.175 110.925 110.144 113 107 113C103.856 113 102.825 110.925 102.825 110.925C102.784 110.85 102.734 110.784 102.675 110.725C101.691 107.422 98.6188 105 95 105C93.1875 105 91.5188 105.606 90.175 106.625C91.0031 103.375 92.0063 99.5563 92.65 97.575V97.55C92.9219 96.6188 93.2438 95.7156 93.875 95.075C94.5063 94.4344 95.475 93.95 97.325 93.95ZM107 105C105.241 105 103.8 106.441 103.8 108.2C103.8 109.959 105.241 111.4 107 111.4C108.759 111.4 110.2 109.959 110.2 108.2C110.2 106.441 108.759 105 107 105ZM95 106.6C98.5438 106.6 101.4 109.456 101.4 113C101.4 116.544 98.5438 119.4 95 119.4C91.4563 119.4 88.6 116.544 88.6 113C88.6 112.519 88.65 112.05 88.75 111.6C88.9094 111.478 89.0156 111.3 89.05 111.1C89.05 111.1 89.2594 110.238 89.3 110.075C90.3594 108.009 92.5125 106.6 95 106.6ZM107 106.6C107.894 106.6 108.6 107.306 108.6 108.2C108.6 109.094 107.894 109.8 107 109.8C106.106 109.8 105.4 109.094 105.4 108.2C105.4 107.306 106.106 106.6 107 106.6ZM119 106.6C121.788 106.6 124.144 108.372 125.025 110.85C125.028 110.863 125.1 111.125 125.1 111.125C125.122 111.206 125.156 111.281 125.2 111.35C125.341 111.875 125.4 112.428 125.4 113C125.4 116.544 122.544 119.4 119 119.4C115.456 119.4 112.6 116.544 112.6 113C112.6 109.456 115.456 106.6 119 106.6ZM90.925 112.175C90.8906 112.181 90.8563 112.191 90.825 112.2C90.4531 112.284 90.1906 112.619 90.2 113C90.2 115.659 92.3406 117.8 95 117.8C95.2875 117.803 95.5563 117.653 95.7031 117.403C95.8469 117.153 95.8469 116.847 95.7031 116.597C95.5563 116.347 95.2875 116.197 95 116.2C93.1781 116.2 91.8 114.822 91.8 113C91.8094 112.769 91.7156 112.547 91.55 112.391C91.3813 112.231 91.1531 112.153 90.925 112.175ZM115.725 112.175C115.691 112.181 115.656 112.191 115.625 112.2C115.253 112.284 114.991 112.619 115 113C115 115.659 117.141 117.8 119.8 117.8C120.088 117.803 120.356 117.653 120.503 117.403C120.647 117.153 120.647 116.847 120.503 116.597C120.356 116.347 120.088 116.197 119.8 116.2C117.978 116.2 116.6 114.822 116.6 113C116.609 112.769 116.516 112.547 116.35 112.391C116.181 112.231 115.953 112.153 115.725 112.175Z" fill="#216E7A"/>
<circle opacity="0.8" cx="95.0016" cy="113" r="6.4" fill="#216E7A"/>
<circle opacity="0.8" cx="119" cy="113" r="6.4" fill="#216E7A"/>
<path d="M91 113C91.5352 115.777 92.3863 116.687 95 117" stroke="white" stroke-width="1.6" stroke-linecap="round"/>
<path d="M115 113C115.535 115.777 116.386 116.687 119 117" stroke="white" stroke-width="1.6" stroke-linecap="round"/>
</g>
<defs>
<filter id="filter0_d_18923_1862" x="0" y="0" width="213" height="213" filterUnits="userSpaceOnUse" color-interpolation-filters="sRGB">
<feFlood flood-opacity="0" result="BackgroundImageFix"/>
<feColorMatrix in="SourceAlpha" type="matrix" values="0 0 0 0 0 0 0 0 0 0 0 0 0 0 0 0 0 0 127 0" result="hardAlpha"/>
<feOffset dy="2"/>
<feGaussianBlur stdDeviation="25"/>
<feColorMatrix type="matrix" values="0 0 0 0 0 0 0 0 0 0 0 0 0 0 0 0 0 0 0.06 0"/>
<feBlend mode="normal" in2="BackgroundImageFix" result="effect1_dropShadow_18923_1862"/>
<feBlend mode="normal" in="SourceGraphic" in2="effect1_dropShadow_18923_1862" result="shape"/>
</filter>
<clipPath id="clip0_18923_1862">
<rect width="40" height="40" fill="white" transform="translate(87 85)"/>
</clipPath>
</defs>
</svg>
