<svg width="40" height="40" viewBox="0 0 40 40" fill="none" xmlns="http://www.w3.org/2000/svg">
<g clip-path="url(#clip0_17842_1192)">
<path opacity="0.8" d="M5 18.125H8.75V30H5V18.125Z" fill="#216E7A"/>
<path d="M35.2669 23.0094C34.6812 22.5762 33.8994 22.45 33.12 22.6656L23.5644 25.3075C23.6819 25.0175 23.75 24.7019 23.75 24.3694C23.75 22.9938 22.6287 21.875 21.25 21.875H15.3894C14.9731 21.25 13.9131 19.375 12.5 19.375H10V18.75C10 17.7162 9.15875 16.875 8.125 16.875H5.625C4.59125 16.875 3.75 17.7162 3.75 18.75V29.375C3.75 30.4087 4.59125 31.25 5.625 31.25H8.125C9.15875 31.25 10 30.4094 10 29.375V28.905L17.5869 34.0312C18.5394 34.6763 19.6481 35 20.7588 35C21.785 35 22.8131 34.7237 23.7225 34.1681L35.0806 27.23C35.8019 26.7906 36.25 25.9919 36.25 25.1469V24.9513C36.25 24.1819 35.8919 23.4744 35.2669 23.0094ZM8.75 29.375C8.75 29.72 8.46938 30 8.125 30H7.5V27.5H6.25V30H5.625C5.28062 30 5 29.72 5 29.375V18.75C5 18.405 5.28062 18.125 5.625 18.125H8.125C8.46938 18.125 8.75 18.4056 8.75 18.75V29.375ZM35 25.1469C35 25.5594 34.7813 25.9487 34.4294 26.1637L23.0713 33.1013C21.5931 34.0031 19.7156 33.9625 18.2875 32.9956L10 27.3969V20.625H12.5C13.1619 20.625 14.0431 21.8963 14.43 22.7556L14.5963 23.125H21.25C21.9394 23.125 22.5 23.6831 22.5 24.3688C22.5 25.0613 21.9394 25.625 21.25 25.625H15V26.875H21.25H22.5L33.4525 23.8706C33.8531 23.7594 34.2525 23.8125 34.5213 24.0138C34.8256 24.2394 35 24.5813 35 24.9513V25.1469Z" fill="#216E7A"/>
<path opacity="0.8" d="M24.0621 10.7708C23.5831 10.7708 23.1236 10.9611 22.7849 11.2998C22.4462 11.6385 22.2559 12.098 22.2559 12.577C22.2559 13.0561 22.4462 13.5155 22.7849 13.8543C23.1236 14.193 23.5831 14.3833 24.0621 14.3833C24.5412 14.3833 25.0006 14.193 25.3394 13.8543C25.6781 13.5155 25.8684 13.0561 25.8684 12.577C25.8684 12.098 25.6781 11.6385 25.3394 11.2998C25.0006 10.9611 24.5412 10.7708 24.0621 10.7708Z" fill="#216E7A"/>
<path d="M30.7458 6.6014C29.7514 5.78443 28.4517 5.52717 26.8745 5.83827C25.8939 6.0529 25.216 6.36364 24.7427 6.70185L24.4233 6.52696V5.35192C24.4233 5.26159 24.4341 5.14344 24.4868 5.09104C24.5949 4.98373 24.9775 4.98734 25.3132 4.98951L26.9525 4.99096C28.3466 4.99096 29.4818 3.85639 29.4818 2.46238V0.654297H26.2295C25.3092 0.654297 24.5042 1.1504 24.0619 1.88751C23.6197 1.1504 22.8146 0.654297 21.8943 0.654297H18.642V2.46238C18.642 3.85639 19.7773 4.99096 21.1713 4.99096L22.8103 4.98987C23.1478 4.98734 23.5286 4.98409 23.637 5.09141C23.6894 5.1438 23.7006 5.26195 23.7006 5.35229V6.52732L23.3591 6.7163C22.8858 6.3799 22.2108 6.07205 21.2421 5.85959C19.6721 5.55065 18.3699 5.8072 17.3748 6.62452C15.4153 8.23568 15.3926 11.423 15.3926 11.5577C15.3926 14.3862 17.2758 17.3068 19.773 18.3514C20.3652 18.5989 20.9502 18.7218 21.5142 18.7218C22.4381 18.7218 23.3071 18.393 24.0623 17.7462C25.2774 18.7857 26.786 19.0025 28.3466 18.35C30.8466 17.3043 32.732 14.3801 32.732 11.548C32.7316 11.4128 32.7092 8.21545 30.7458 6.6014ZM26.2295 1.37695H28.7592V2.46238C28.7592 3.4582 27.9484 4.26866 26.9525 4.26866L25.3193 4.26758C24.9981 4.26649 24.6039 4.26469 24.4233 4.33551V4.26866C24.4233 3.67103 24.9092 3.18359 25.5069 3.18359H26.5912V2.46094H25.5069C25.1195 2.46094 24.7622 2.58596 24.4677 2.79444C24.6466 1.98543 25.3674 1.37695 26.2295 1.37695ZM22.9797 4.26686C22.9223 4.26686 22.8638 4.26722 22.8052 4.26758L21.1713 4.2683C20.1755 4.2683 19.3647 3.45784 19.3647 2.46202V1.37695H21.8943C22.7564 1.37695 23.4773 1.98543 23.6558 2.79444C23.3617 2.58596 23.0043 2.46094 22.617 2.46094H21.5326V3.18359H22.617C23.2146 3.18359 23.7006 3.67103 23.7006 4.2683V4.33406C23.3393 4.27553 23.237 4.26686 22.9797 4.26686ZM28.0676 17.6833C26.6823 18.2629 25.3497 18.0186 24.3156 16.9983L24.0619 16.7482L23.8083 16.9983C22.772 18.0205 21.4383 18.2647 20.0512 17.6848C17.8438 16.7616 16.1145 14.07 16.1145 11.5574C16.1145 11.5277 16.1344 8.57895 17.8333 7.18241C18.4223 6.69823 19.1562 6.45542 20.0208 6.45542C20.359 6.45542 20.7171 6.49264 21.0947 6.56707C23.2601 7.04149 23.7006 7.98962 23.7006 8.39756V8.60352H24.4233V8.3495C24.4233 7.86388 24.932 7.00355 27.0219 6.54575C28.3693 6.27909 29.4663 6.48613 30.2851 7.1582C31.9848 8.55257 32.0093 11.5187 32.0093 11.5483C32.0093 14.0643 30.2779 16.7591 28.0676 17.6833Z" fill="#216E7A"/>
</g>
<defs>
<clipPath id="clip0_17842_1192">
<rect width="40" height="40" fill="white"/>
</clipPath>
</defs>
</svg>
