<svg width="40" height="40" viewBox="0 0 40 40" fill="none" xmlns="http://www.w3.org/2000/svg">
<path d="M5 18.125H8.75V30H5V18.125Z" fill="#216E7A" fill-opacity="0.8"/>
<path d="M35.2669 23.0094C34.6812 22.5762 33.8994 22.45 33.12 22.6656L23.5644 25.3075C23.6819 25.0175 23.75 24.7019 23.75 24.3694C23.75 22.9938 22.6287 21.875 21.25 21.875H15.3894C14.9731 21.25 13.9131 19.375 12.5 19.375H10V18.75C10 17.7162 9.15875 16.875 8.125 16.875H5.625C4.59125 16.875 3.75 17.7162 3.75 18.75V29.375C3.75 30.4087 4.59125 31.25 5.625 31.25H8.125C9.15875 31.25 10 30.4094 10 29.375V28.905L17.5869 34.0312C18.5394 34.6763 19.6481 35 20.7588 35C21.785 35 22.8131 34.7237 23.7225 34.1681L35.0806 27.23C35.8019 26.7906 36.25 25.9919 36.25 25.1469V24.9513C36.25 24.1819 35.8919 23.4744 35.2669 23.0094ZM8.75 29.375C8.75 29.72 8.46938 30 8.125 30H7.5V27.5H6.25V30H5.625C5.28062 30 5 29.72 5 29.375V18.75C5 18.405 5.28062 18.125 5.625 18.125H8.125C8.46938 18.125 8.75 18.4056 8.75 18.75V29.375ZM35 25.1469C35 25.5594 34.7813 25.9487 34.4294 26.1637L23.0713 33.1013C21.5931 34.0031 19.7156 33.9625 18.2875 32.9956L10 27.3969V20.625H12.5C13.1619 20.625 14.0431 21.8963 14.43 22.7556L14.5963 23.125H21.25C21.9394 23.125 22.5 23.6831 22.5 24.3688C22.5 25.0613 21.9394 25.625 21.25 25.625H15V26.875H21.25H22.5L33.4525 23.8706C33.8531 23.7594 34.2525 23.8125 34.5213 24.0138C34.8256 24.2394 35 24.5813 35 24.9513V25.1469Z" fill="#216E7A"/>
<path d="M24.375 18.75C26.0194 18.75 32.5 14.6506 32.5 9.375C32.5 6.96312 30.5375 5 28.125 5C26.5356 5 25.1412 5.85188 24.375 7.12313C23.6087 5.85188 22.2144 5 20.625 5C18.2125 5 16.25 6.96312 16.25 9.375C16.25 14.6506 22.7306 18.75 24.375 18.75ZM20.625 6.25C22.3481 6.25 23.75 7.5 23.75 9.375H25C25 7.5 26.4019 6.25 28.125 6.25C29.8481 6.25 31.25 7.65188 31.25 9.375C31.25 14.1019 25.2006 17.5 24.375 17.5C23.5494 17.5 17.5 14.1019 17.5 9.375C17.5 7.65188 18.9019 6.25 20.625 6.25Z" fill="#216E7A"/>
</svg>
