<svg width="20" height="20" viewBox="0 0 20 20" fill="none" xmlns="http://www.w3.org/2000/svg">
<path d="M16.2608 10.4861L10.0108 16.6761L3.76083 10.4861C3.34859 10.0849 3.02387 9.60277 2.80712 9.06995C2.59037 8.53714 2.4863 7.96522 2.50144 7.3902C2.51659 6.81519 2.65063 6.24954 2.89513 5.72887C3.13962 5.20821 3.48928 4.7438 3.92207 4.36491C4.35486 3.98601 4.86142 3.70083 5.40984 3.52733C5.95826 3.35382 6.53667 3.29574 7.10864 3.35676C7.68061 3.41777 8.23375 3.59656 8.73323 3.88185C9.23271 4.16714 9.6677 4.55276 10.0108 5.01442C10.3554 4.55611 10.7909 4.17386 11.2901 3.8916C11.7892 3.60933 12.3412 3.43313 12.9116 3.37402C13.482 3.31492 14.0584 3.37417 14.6048 3.54808C15.1512 3.722 15.6559 4.00682 16.0871 4.38473C16.5184 4.76264 16.867 5.2255 17.1112 5.74434C17.3553 6.26318 17.4898 6.82683 17.5061 7.40001C17.5224 7.9732 17.4202 8.54359 17.2059 9.07547C16.9917 9.60735 16.6699 10.0893 16.2608 10.4911" stroke="#19707D" stroke-linecap="round" stroke-linejoin="round"/>
</svg>
