<svg width="108" height="84" viewBox="0 0 108 84" fill="none" xmlns="http://www.w3.org/2000/svg">
<path fill-rule="evenodd" clip-rule="evenodd" d="M29.6133 58.3841V49.5161H45.2363C45.5621 49.5161 45.8815 49.5382 46.2012 49.5604C46.2385 49.563 46.2757 49.5655 46.313 49.5681L44.055 53.9501H34.077V58.3841C34.077 64.4964 39.083 69.4692 45.2363 69.4692H46.3522H56.3955V65.0352C56.3955 60.1888 53.2286 56.1049 48.8587 54.604L46.3914 49.5724C54.4663 50.1643 60.8592 56.8677 60.8592 65.0352V69.4692C60.8592 71.9146 58.8573 73.9032 56.3955 73.9032H45.2363C36.6235 73.9032 29.6133 66.9396 29.6133 58.3841ZM84.2545 49.5724C84.2612 49.5613 84.2937 49.5161 84.2937 49.5161L84.333 49.5681C84.3702 49.5655 84.4075 49.563 84.4447 49.5604C84.7644 49.5382 85.0838 49.5161 85.4097 49.5161H101.033V58.3841C101.033 66.9396 94.0224 73.9032 85.4097 73.9032H74.2504C71.7886 73.9032 69.7867 71.9146 69.7867 69.4692V65.0352C69.7867 56.8677 76.1796 50.1643 84.2545 49.5724ZM96.5689 53.9501H86.591C87.1757 55.5353 87.6415 57.4419 87.6415 59.4927C87.6415 65.0019 84.2937 69.4692 84.2937 69.4692C84.2937 69.4692 80.9459 65.0019 80.9459 59.4927C80.9459 57.7057 81.3119 56.0539 81.7873 54.604C77.4173 56.1049 74.2504 60.1888 74.2504 65.0352V69.4692H84.2937H85.4097C91.5629 69.4692 96.5689 64.4964 96.5689 58.3841V53.9501Z" fill="#C5E1E6"/>
<path d="M46.3914 49.5724C46.3847 49.5613 46.3522 49.5161 46.3522 49.5161L46.313 49.5681L44.055 53.9501C43.4702 55.5353 43.0044 57.4419 43.0044 59.4927C43.0044 65.0019 46.3522 69.4692 46.3522 69.4692C46.3522 69.4692 49.7 65.0019 49.7 59.4927C49.7 57.7057 49.3341 56.0539 48.8587 54.604L46.3914 49.5724Z" fill="#C5E1E6"/>
<path d="M10.6258 32.3484C7.74581 32.3484 5.52774 31.6632 3.97161 30.2929C2.41548 28.9226 1.56774 26.9948 1.42839 24.5097C1.40516 24.2077 1.39355 23.6852 1.39355 22.9419C1.39355 22.1987 1.40516 21.6761 1.42839 21.3742C1.56774 18.9123 2.43871 16.9961 4.04129 15.6258C5.64387 14.2323 7.83871 13.5355 10.6258 13.5355C13.4361 13.5355 15.6426 14.2323 17.2452 15.6258C18.8477 16.9961 19.7187 18.9123 19.8581 21.3742C19.8813 21.6761 19.8929 22.1987 19.8929 22.9419C19.8929 23.6852 19.8813 24.2077 19.8581 24.5097C19.7187 26.9948 18.871 28.9226 17.3148 30.2929C15.7587 31.6632 13.529 32.3484 10.6258 32.3484ZM10.6258 28.0981C11.6477 28.0981 12.4026 27.7961 12.8903 27.1923C13.3781 26.5652 13.6568 25.6129 13.7265 24.3355C13.7497 24.1032 13.7613 23.6387 13.7613 22.9419C13.7613 22.2452 13.7497 21.7806 13.7265 21.5484C13.6568 20.2942 13.3665 19.3535 12.8555 18.7265C12.3677 18.0994 11.6245 17.7858 10.6258 17.7858C8.69807 17.7858 7.67613 19.04 7.56 21.5484L7.52516 22.9419L7.56 24.3355C7.60645 25.6129 7.87355 26.5652 8.36129 27.1923C8.87226 27.7961 9.6271 28.0981 10.6258 28.0981ZM24.2243 32C23.9689 32 23.7598 31.9187 23.5972 31.7561C23.4347 31.5935 23.3534 31.3845 23.3534 31.129V14.7548C23.3534 14.4994 23.4347 14.2903 23.5972 14.1277C23.7598 13.9652 23.9689 13.8839 24.2243 13.8839H28.2308C28.4863 13.8839 28.6953 13.9652 28.8579 14.1277C29.0437 14.2903 29.1366 14.4994 29.1366 14.7548V16.0787C29.7637 15.3123 30.565 14.6968 31.5405 14.2323C32.5392 13.7677 33.6656 13.5355 34.9198 13.5355C36.9637 13.5355 38.6243 14.2323 39.9018 15.6258C41.1792 16.9961 41.8179 18.9239 41.8179 21.409V31.129C41.8179 31.3613 41.7366 31.5703 41.574 31.7561C41.4114 31.9187 41.2024 32 40.9469 32H36.5572C36.325 32 36.1159 31.9187 35.9301 31.7561C35.7676 31.5703 35.6863 31.3613 35.6863 31.129V21.6181C35.6863 20.5265 35.4192 19.6903 34.885 19.1097C34.3508 18.5058 33.5843 18.2039 32.5856 18.2039C31.6101 18.2039 30.8437 18.5058 30.2863 19.1097C29.7289 19.6903 29.4501 20.5265 29.4501 21.6181V31.129C29.4501 31.3613 29.3689 31.5703 29.2063 31.7561C29.0437 31.9187 28.8347 32 28.5792 32H24.2243ZM46.6109 32C46.3787 32 46.1696 31.9187 45.9838 31.7561C45.8213 31.5703 45.74 31.3613 45.74 31.129V8.13548C45.74 7.88 45.8213 7.67097 45.9838 7.50839C46.1696 7.3458 46.3787 7.26451 46.6109 7.26451H50.7219C50.9774 7.26451 51.1864 7.3458 51.349 7.50839C51.5116 7.67097 51.5929 7.88 51.5929 8.13548V31.129C51.5929 31.3845 51.5116 31.5935 51.349 31.7561C51.1864 31.9187 50.9774 32 50.7219 32H46.6109ZM56.5446 11.271C56.2891 11.271 56.0801 11.1897 55.9175 11.0271C55.7549 10.8645 55.6736 10.6555 55.6736 10.4V7.26451C55.6736 7.00903 55.7549 6.8 55.9175 6.63742C56.0801 6.47484 56.2891 6.39355 56.5446 6.39355H60.7252C60.9807 6.39355 61.1898 6.47484 61.3523 6.63742C61.5149 6.8 61.5962 7.00903 61.5962 7.26451V10.4C61.5962 10.6555 61.5149 10.8645 61.3523 11.0271C61.1898 11.1897 60.9807 11.271 60.7252 11.271H56.5446ZM56.5794 32C56.3239 32 56.1149 31.9187 55.9523 31.7561C55.7898 31.5935 55.7085 31.3845 55.7085 31.129V14.7548C55.7085 14.4994 55.7898 14.2903 55.9523 14.1277C56.1149 13.9652 56.3239 13.8839 56.5794 13.8839H60.6904C60.9459 13.8839 61.1549 13.9652 61.3175 14.1277C61.4801 14.2903 61.5614 14.4994 61.5614 14.7548V31.129C61.5614 31.3613 61.4801 31.5703 61.3175 31.7561C61.1549 31.9187 60.9459 32 60.6904 32H56.5794ZM66.5479 32C66.2924 32 66.0834 31.9187 65.9208 31.7561C65.7582 31.5935 65.677 31.3845 65.677 31.129V14.7548C65.677 14.4994 65.7582 14.2903 65.9208 14.1277C66.0834 13.9652 66.2924 13.8839 66.5479 13.8839H70.5544C70.8099 13.8839 71.0189 13.9652 71.1815 14.1277C71.3673 14.2903 71.4602 14.4994 71.4602 14.7548V16.0787C72.0873 15.3123 72.8886 14.6968 73.8641 14.2323C74.8628 13.7677 75.9892 13.5355 77.2434 13.5355C79.2873 13.5355 80.9479 14.2323 82.2253 15.6258C83.5028 16.9961 84.1415 18.9239 84.1415 21.409V31.129C84.1415 31.3613 84.0602 31.5703 83.8976 31.7561C83.735 31.9187 83.526 32 83.2705 32H78.8808C78.6486 32 78.4395 31.9187 78.2537 31.7561C78.0912 31.5703 78.0099 31.3613 78.0099 31.129V21.6181C78.0099 20.5265 77.7428 19.6903 77.2086 19.1097C76.6744 18.5058 75.9079 18.2039 74.9092 18.2039C73.9337 18.2039 73.1673 18.5058 72.6099 19.1097C72.0524 19.6903 71.7737 20.5265 71.7737 21.6181V31.129C71.7737 31.3613 71.6924 31.5703 71.5299 31.7561C71.3673 31.9187 71.1583 32 70.9028 32H66.5479ZM96.4248 32.3484C93.6377 32.3484 91.4429 31.5935 89.8403 30.0839C88.2377 28.5742 87.4016 26.3794 87.3319 23.4994V22.28C87.4248 19.5394 88.2726 17.4026 89.8752 15.8697C91.501 14.3135 93.6726 13.5355 96.39 13.5355C98.3642 13.5355 100.025 13.9419 101.372 14.7548C102.742 15.5445 103.764 16.6361 104.438 18.0297C105.135 19.4232 105.483 21.0258 105.483 22.8374V23.6735C105.483 23.9058 105.402 24.1148 105.239 24.3006C105.076 24.4632 104.867 24.5445 104.612 24.5445H93.4635V24.7884C93.51 25.88 93.7771 26.7626 94.2648 27.4361C94.7526 28.1097 95.461 28.4465 96.39 28.4465C96.9706 28.4465 97.4468 28.3303 97.8184 28.0981C98.19 27.8426 98.5268 27.5406 98.8287 27.1923C99.0377 26.9368 99.2003 26.7858 99.3165 26.7394C99.4558 26.6697 99.6648 26.6348 99.9435 26.6348H104.264C104.473 26.6348 104.647 26.7045 104.786 26.8439C104.949 26.96 105.03 27.1226 105.03 27.3316C105.03 27.9355 104.682 28.6323 103.985 29.4219C103.311 30.2116 102.324 30.8968 101.024 31.4774C99.7229 32.0581 98.19 32.3484 96.4248 32.3484ZM99.3513 21.0955V21.0258C99.3513 19.8877 99.0842 18.9935 98.55 18.3432C98.039 17.6697 97.319 17.3329 96.39 17.3329C95.4842 17.3329 94.7642 17.6697 94.23 18.3432C93.719 18.9935 93.4635 19.8877 93.4635 21.0258V21.0955H99.3513Z" fill="#0D444D"/>
<path d="M2.19484 73.8065C1.93935 73.8065 1.73032 73.7252 1.56774 73.5626C1.40516 73.3768 1.32387 73.1561 1.32387 72.9007V69.5213C1.32387 69.0336 1.49806 68.6155 1.84645 68.2671L13.0645 54.6103H2.50839C2.27613 54.6103 2.0671 54.529 1.88129 54.3665C1.71871 54.1806 1.63742 53.9716 1.63742 53.7394V50.2903C1.63742 50.0348 1.71871 49.8258 1.88129 49.6632C2.0671 49.5006 2.27613 49.4194 2.50839 49.4194H20.1019C20.3574 49.4194 20.5665 49.5006 20.729 49.6632C20.8916 49.8258 20.9729 50.0348 20.9729 50.2903V53.6697C20.9729 54.0645 20.8219 54.4594 20.52 54.8542L9.61548 68.5458H20.4852C20.7406 68.5458 20.9497 68.6387 21.1123 68.8245C21.2981 68.9871 21.391 69.1961 21.391 69.4516V72.9355C21.391 73.191 21.2981 73.4 21.1123 73.5626C20.9497 73.7252 20.7406 73.8065 20.4852 73.8065H2.19484Z" fill="#0D444D"/>
</svg>
