<svg width="40" height="40" viewBox="0 0 40 40" fill="none" xmlns="http://www.w3.org/2000/svg">
<path d="M15.625 20C16.3154 20 16.875 19.4404 16.875 18.75C16.875 18.0596 16.3154 17.5 15.625 17.5C14.9346 17.5 14.375 18.0596 14.375 18.75C14.375 19.4404 14.9346 20 15.625 20Z" fill="#216E7A"/>
<path d="M24.375 20C25.0654 20 25.625 19.4404 25.625 18.75C25.625 18.0596 25.0654 17.5 24.375 17.5C23.6846 17.5 23.125 18.0596 23.125 18.75C23.125 19.4404 23.6846 20 24.375 20Z" fill="#216E7A"/>
<path d="M18.4375 25C19.3004 25 20 24.5803 20 24.0625C20 23.5447 19.3004 23.125 18.4375 23.125C17.5746 23.125 16.875 23.5447 16.875 24.0625C16.875 24.5803 17.5746 25 18.4375 25Z" fill="#216E7A"/>
<path opacity="0.8" d="M32.5 18.75H30V15H32.5C33.1906 15 33.75 15.5594 33.75 16.25V17.5C33.75 18.1906 33.1906 18.75 32.5 18.75Z" fill="#216E7A"/>
<path d="M21.5625 25C22.4254 25 23.125 24.5803 23.125 24.0625C23.125 23.5447 22.4254 23.125 21.5625 23.125C20.6996 23.125 20 23.5447 20 24.0625C20 24.5803 20.6996 25 21.5625 25Z" fill="#216E7A"/>
<path opacity="0.8" d="M7.5 18.75H10V15H7.5C6.80937 15 6.25 15.5594 6.25 16.25V17.5C6.25 18.1906 6.80937 18.75 7.5 18.75Z" fill="#216E7A"/>
<path opacity="0.8" d="M29.9934 14.6499C29.8059 11.3624 27.0809 8.74992 23.7496 8.74992C22.7121 8.74992 21.7746 9.16867 21.0996 9.84992C20.4184 10.5249 19.9996 11.4624 19.9996 12.4999C19.9996 11.4624 19.5809 10.5249 18.8996 9.84992C18.2246 9.16867 17.2871 8.74992 16.2496 8.74992C12.9184 8.74992 10.1934 11.3624 10.0059 14.6499C10.0934 12.0249 11.1934 9.66242 12.9246 7.92492C14.7559 6.09992 17.2059 4.97492 19.9996 4.99992C22.7934 4.97492 25.2434 6.09992 27.0746 7.92492C28.8059 9.66242 29.9059 12.0249 29.9934 14.6499Z" fill="#216E7A"/>
<path d="M33.125 12.5H30.3312C29.8794 10.6182 28.9181 8.88941 27.5163 7.48253C25.5031 5.47628 22.8644 4.37503 20.0781 4.37503C20.0256 4.37503 19.9731 4.37441 19.9219 4.37503C17.1356 4.37503 14.4963 5.47691 12.4825 7.48441C11.0813 8.89066 10.1206 10.6188 9.66937 12.5007H6.875C5.15188 12.5007 3.75 13.9025 3.75 15.6257V18.1257C3.75 19.8488 5.15188 21.2507 6.875 21.2507H8.41C7.05125 22.5357 6.25 24.3425 6.25 26.25V29.375C6.25 32.8213 9.05375 35.625 12.5 35.625H20H27.5C30.9463 35.625 33.75 32.8213 33.75 29.375V26.25C33.75 24.3425 32.9487 22.5357 31.5906 21.25H33.125C34.8481 21.25 36.25 19.8482 36.25 18.125V15.625C36.25 13.9019 34.8481 12.5 33.125 12.5ZM13.3663 8.36816C15.1431 6.59691 17.4681 5.62503 19.9219 5.62503C19.9463 5.62503 19.9713 5.62503 19.995 5.62503L20 5.00003L20.005 5.62503C22.51 5.60691 24.8394 6.58003 26.6325 8.36628C26.8719 8.60691 27.0969 8.85816 27.3069 9.11878C26.2688 8.48816 25.0513 8.12503 23.75 8.12503C22.1606 8.12503 20.7663 8.97691 20 10.2482C19.2338 8.97691 17.8394 8.12503 16.25 8.12503C14.9487 8.12503 13.7312 8.48816 12.6931 9.11878C12.9025 8.85816 13.1269 8.60753 13.3663 8.36816ZM6.875 20C5.84125 20 5 19.1588 5 18.125V15.625C5 14.5913 5.84125 13.75 6.875 13.75H9.375V20H6.875ZM32.5 26.25V29.375C32.5 32.1319 30.2569 34.375 27.5 34.375H20H12.5C9.74312 34.375 7.5 32.1319 7.5 29.375V26.25C7.5 24.2494 8.57812 22.3825 10.3131 21.3782L10.5344 21.25H10.625V15C10.625 11.8988 13.1488 9.37503 16.25 9.37503C17.9731 9.37503 19.375 10.7769 19.375 12.5V13.125H20.625V12.5C20.625 10.7769 22.0269 9.37503 23.75 9.37503C26.8519 9.37503 29.375 11.8988 29.375 15V21.25H29.4656L29.6869 21.3782C31.4219 22.3825 32.5 24.2494 32.5 26.25ZM35 18.125C35 19.1588 34.1588 20 33.125 20H30.625V13.75H33.125C34.1588 13.75 35 14.5913 35 15.625V18.125ZM15.625 22.5C17.6931 22.5 19.375 20.8182 19.375 18.75C19.375 16.6819 17.6931 15 15.625 15C13.5569 15 11.875 16.6819 11.875 18.75C11.875 20.8182 13.5569 22.5 15.625 22.5ZM15.625 16.25C17.0037 16.25 18.125 17.3713 18.125 18.75C18.125 20.1288 17.0037 21.25 15.625 21.25C14.2463 21.25 13.125 20.1288 13.125 18.75C13.125 17.3713 14.2463 16.25 15.625 16.25ZM28.125 26.875H29.375V28.75C29.375 30.1288 28.2537 31.25 26.875 31.25H13.125C11.7463 31.25 10.625 30.1288 10.625 28.75V26.875H11.875V28.75C11.875 29.4394 12.4356 30 13.125 30H26.875C27.5644 30 28.125 29.4394 28.125 28.75V26.875ZM24.375 22.5C26.4431 22.5 28.125 20.8182 28.125 18.75C28.125 16.6819 26.4431 15 24.375 15C22.3069 15 20.625 16.6819 20.625 18.75C20.625 20.8182 22.3069 22.5 24.375 22.5ZM24.375 16.25C25.7537 16.25 26.875 17.3713 26.875 18.75C26.875 20.1288 25.7537 21.25 24.375 21.25C22.9963 21.25 21.875 20.1288 21.875 18.75C21.875 17.3713 22.9963 16.25 24.375 16.25Z" fill="#216E7A"/>
</svg>
