<svg width="40" height="40" viewBox="0 0 40 40" fill="none" xmlns="http://www.w3.org/2000/svg">
<path opacity="0.8" d="M21.8762 26.25C21.3062 25.49 20.3981 24.9988 19.375 24.9988C17.6494 24.9988 16.25 26.3982 16.25 28.1238C16.25 29.8494 17.6494 31.2488 19.375 31.2488C19.8194 31.2488 20.2425 31.1557 20.625 30.9888L18.7513 28.1238L21.8762 26.25Z" fill="#216E7A"/>
<path d="M34.375 8.12502H31.875C30.8412 8.12502 30 8.96439 30 9.99814V11.25H23.2556L12.2669 6.46439C11.0481 5.93439 9.57937 6.43127 8.9975 7.57564C8.71375 8.13314 8.67188 8.76127 8.88062 9.34752C9.1 9.96252 9.56312 10.4531 10.185 10.7263L11.3737 11.25H10.625H8.75H6.25C4.87125 11.25 3.75 12.3713 3.75 13.75C3.75 15.1288 4.87125 16.25 6.25 16.25H8.75H10.625H16.3612C14.0719 18.125 12.5 20.2281 12.5 23.1244C12.5 24.6856 12.9456 26.1956 13.7856 27.505C13.7631 27.7081 13.75 27.9144 13.75 28.1238C13.75 31.2256 16.2731 33.7488 19.375 33.7488C21.6788 33.7488 23.7262 32.3688 24.5913 30.2331L24.5662 30.2231C27.0581 28.8331 28.75 26.1731 28.75 23.1231V21.875H30.1156C30.3744 22.5 31.0619 23.125 31.875 23.125H34.375C35.4088 23.125 36.25 22.2825 36.25 21.2481V9.99814C36.25 8.96439 35.4088 8.12502 34.375 8.12502ZM10.6887 9.58252C10.385 9.44877 10.1606 9.21564 10.0581 8.92814C9.96625 8.66939 9.985 8.39002 10.1106 8.14314C10.4 7.57689 11.1425 7.3394 11.7675 7.61127L20.1238 11.25H14.4769L10.6887 9.58252ZM5 13.75C5 13.0606 5.56062 12.5 6.25 12.5H6.5975C6.3825 13.125 6.25 13.2925 6.25 13.75C6.25 14.2075 6.3825 15 6.5975 15H6.25C5.56062 15 5 14.4394 5 13.75ZM19.375 32.4981C16.9631 32.4981 15 30.535 15 28.1231C15 25.7113 16.9631 23.7481 19.375 23.7481C20.7038 23.7481 21.9519 24.3625 22.7756 25.38C22.2144 25.915 21.4594 26.2481 20.625 26.2481C19.2463 26.2481 18.125 27.3694 18.125 28.7481C18.125 30.1269 19.2463 31.2481 20.625 31.2481C21.34 31.2481 22.03 31.1463 22.6912 30.9719C21.8756 31.9238 20.6806 32.4981 19.375 32.4981ZM23.5081 24.325C22.4531 23.1819 20.9606 22.4981 19.375 22.4981C18.7288 22.4981 18.11 22.6131 17.5312 22.815C17.6887 21.2381 19.0075 19.9981 20.625 19.9981C22.3481 19.9981 23.75 21.4 23.75 23.1231C23.75 23.5494 23.6631 23.955 23.5081 24.325ZM27.5 20.625V21.8731V23.1231C27.5 26.9138 24.4156 29.9981 20.625 29.9981C19.9356 29.9981 19.375 29.4375 19.375 28.7481C19.375 28.0588 19.9356 27.4981 20.625 27.4981C23.0369 27.4981 25 25.535 25 23.1231C25 20.7113 23.0369 18.7481 20.625 18.7481C18.2131 18.7481 16.25 20.7113 16.25 23.1231C16.25 23.2488 16.2281 23.3719 16.1912 23.4906C15.3669 24.0588 14.705 24.8431 14.2781 25.7588C13.9331 24.9281 13.75 24.0363 13.75 23.1231C13.75 19.3325 16.875 16.2481 20.625 16.2481V15C20.4144 15 10.625 15 10.625 15H8.75C8.06063 15 7.5 14.4394 7.5 13.75C7.5 13.0606 8.06063 12.5 8.75 12.5H10.625H30V20.625H28.75H27.5ZM35 21.2481C35 21.5931 34.72 21.875 34.375 21.875H33.75V18.125H32.5V21.875H31.875C31.53 21.875 31.25 21.5931 31.25 21.2481V9.99814C31.25 9.65377 31.53 9.37502 31.875 9.37502H34.375C34.72 9.37502 35 9.65377 35 9.99814V21.2481Z" fill="#216E7A"/>
</svg>
