<svg width="40" height="40" viewBox="0 0 40 40" fill="none" xmlns="http://www.w3.org/2000/svg">
<path opacity="0.8" d="M20.8885 20.9125C20.4097 20.3931 19.5897 20.3931 19.1116 20.9125L15.8441 24.4606C14.7747 25.6219 15.5979 27.5 17.1766 27.5H22.8229C24.4016 27.5 25.2247 25.6219 24.1554 24.4606L20.8885 20.9125Z" fill="#216E7A"/>
<path opacity="0.8" d="M25.625 21.875C26.6605 21.875 27.5 21.0355 27.5 20C27.5 18.9645 26.6605 18.125 25.625 18.125C24.5895 18.125 23.75 18.9645 23.75 20C23.75 21.0355 24.5895 21.875 25.625 21.875Z" fill="#216E7A"/>
<path opacity="0.8" d="M14.375 21.875C15.4105 21.875 16.25 21.0355 16.25 20C16.25 18.9645 15.4105 18.125 14.375 18.125C13.3395 18.125 12.5 18.9645 12.5 20C12.5 21.0355 13.3395 21.875 14.375 21.875Z" fill="#216E7A"/>
<path opacity="0.8" d="M20 19.375C21.0355 19.375 21.875 18.5355 21.875 17.5C21.875 16.4645 21.0355 15.625 20 15.625C18.9645 15.625 18.125 16.4645 18.125 17.5C18.125 18.5355 18.9645 19.375 20 19.375Z" fill="#216E7A"/>
<path d="M28.125 5.06561C24.5 5.06561 21.2987 7.47811 20 10.9394C18.7013 7.47811 15.5 5.06561 11.875 5.06561C7.05 5.06561 3.125 9.23686 3.125 14.3637C3.125 24.3756 11.5112 31.0919 16.5106 34.2044C17.5869 34.8744 18.7931 35.2094 20 35.2094C21.2069 35.2094 22.4131 34.8744 23.4894 34.2044C28.4888 31.0919 36.875 24.3756 36.875 14.3637C36.875 9.23686 32.95 5.06561 28.125 5.06561ZM22.8288 33.1437C21.0837 34.23 18.9163 34.2287 17.1713 33.1437C12.3925 30.1681 4.375 23.7712 4.375 14.3637C4.375 9.92561 7.73938 6.31561 11.875 6.31561C15.5731 6.31561 18.7606 9.27874 19.2881 13.2075L19.3612 13.75H20.6388L20.7119 13.2081C21.2394 9.27936 24.4269 6.31561 28.125 6.31561C32.2606 6.31561 35.625 9.92561 35.625 14.3637C35.625 23.7712 27.6075 30.1681 22.8288 33.1437Z" fill="#216E7A"/>
<path d="M28.75 8.125V9.375C30.8181 9.375 32.5 11.0569 32.5 13.125H33.75C33.75 10.3681 31.5069 8.125 28.75 8.125Z" fill="#216E7A"/>
<path d="M28.75 10.625V11.875C29.4394 11.875 30 12.4356 30 13.125H31.25C31.25 11.7462 30.1288 10.625 28.75 10.625Z" fill="#216E7A"/>
</svg>
