<svg width="33" height="66" viewBox="0 0 33 66" fill="none" xmlns="http://www.w3.org/2000/svg">
<path d="M13.9101 59.1991C14.1586 58.1944 14.0647 56.3396 14.0647 56.3396L18.5471 54.3302C18.5471 54.3302 18.1379 55.552 18.238 56.3396C18.3235 57.0124 18.7246 57.2972 18.8562 57.9625C19.0086 58.7323 18.6779 59.2077 18.8562 59.9719C18.9823 60.5122 19.3972 61.2857 19.3972 61.2857C19.3972 61.2857 20.0166 61.1423 20.3246 60.8993C20.7597 60.5562 20.8173 60.1783 21.0202 59.6628C21.5616 58.2865 20.8656 55.8759 21.0202 55.8759C21.1747 55.8759 25.0389 58.5035 25.0389 58.5035C25.0389 58.5035 24.52 59.6496 24.4206 60.4356C24.2683 61.6405 24.4487 62.459 23.6478 63.5269C23.3155 63.8031 22.6431 63.9906 22.6431 63.9906C22.6431 63.9906 20.4792 66 20.5565 65.459C20.5565 64.7635 20.711 63.6815 20.711 63.6815C20.711 63.6815 16.074 65.8454 16.074 65.459C15.9195 64.8407 16.615 63.9906 16.615 63.9906C16.615 63.9906 14.9921 64.9953 15.1466 64.5316C15.2546 64.2077 15.4631 63.8504 15.6551 63.5609C15.5703 63.6295 15.4767 63.6772 15.3785 63.6815C14.8349 63.7053 14.9148 62.3677 14.9148 62.3677C14.9148 62.3677 12.3644 63.9906 11.2052 63.9906C10.9403 63.4785 11.0506 62.5222 11.0506 62.5222C11.0506 62.5222 9.19582 63.1405 8.3457 63.0632C8.50027 62.0585 9.22842 61.7816 9.96865 61.1311C11.2564 59.9996 13.1373 59.5855 13.9101 59.1991Z" fill="#0A5D69"/>
<path d="M1.00468 0.386476C0.761655 0.486835 0.468771 0.674032 0.262104 0.816252C0.15513 0.889867 0.187455 1.05076 0.313518 1.08192C0.576551 1.14694 0.953546 1.24078 1.23653 1.31388C2.63339 1.6747 3.44268 1.80681 4.79157 2.31856C6.47004 2.95534 7.44066 3.34261 8.88759 4.40521C9.56041 4.89932 9.96626 5.16339 10.5105 5.79631L10.5169 5.80371C11.3145 6.73114 11.8548 7.35951 11.9789 8.57851C12.0125 8.9088 11.9789 9.42863 11.9789 9.42863C11.9789 9.42863 12.7939 9.93171 13.37 10.1242C14.9157 10.6651 20.5574 8.34663 20.5574 5.8736C19.9391 3.94148 18.7256 2.23641 16.5386 1.31388C15.9313 1.05768 15.5668 0.952887 14.9157 0.850176C14.0809 0.718498 13.5955 0.802546 12.7518 0.850176C11.4733 0.922346 10.7859 1.34795 9.50586 1.31388C8.52869 1.28787 7.99649 1.09118 7.03279 0.927459C5.45719 0.659793 4.61206 0.131625 3.01405 0.154626C2.22422 0.165994 1.73479 0.0849755 1.00468 0.386476Z" fill="#0A5D69"/>
<path d="M16.3062 9.35129C15.2902 9.79303 13.633 10.0608 13.2816 10.1142C13.2553 10.1182 13.2469 10.1514 13.2672 10.1686L14.7605 11.4379L17.62 13.6019C17.62 13.6019 19.5876 15.3202 20.3249 16.7705C20.6755 17.4601 20.7607 17.8966 21.0205 18.6253C21.6681 20.4416 22.4888 23.3396 22.4888 23.3396C22.4888 23.3396 23.0523 25.355 23.8027 26.4309C24.2428 27.0621 24.613 27.3175 25.1165 27.8993C25.9586 28.8724 26.625 29.3 27.2031 30.4496C27.9344 31.904 27.6501 32.7785 27.976 34.5457C28.4047 36.8708 29.2898 40.8829 29.2898 40.8829V42.0422C29.2898 43.521 29.446 44.3584 29.2898 45.829C29.1366 47.2712 28.517 49.4614 28.517 49.4614L26.8024 54.9623C26.7857 55.0158 26.8587 55.0474 26.8851 54.998C27.2134 54.3842 27.8287 53.2174 28.2078 52.3981C28.7488 50.9297 28.9059 49.5094 29.4444 47.6838C29.6755 46.9001 30.0373 45.7695 30.168 45.3633C30.1822 45.319 30.2453 45.3214 30.2567 45.3665L31.4537 50.0796C31.4537 50.0796 32.072 51.7799 32.6903 51.8571C33.067 51.5418 32.9221 50.6206 32.9221 50.6206C32.9221 50.6206 32.188 48.3319 31.8401 46.8337C31.4934 45.3401 31.444 44.4734 31.1446 42.9696C31.0001 42.2439 30.8811 41.8444 30.7582 41.1148C30.6809 39.6464 30.6087 37.2055 30.5263 34.7002C30.4608 32.7084 30.6569 31.5719 30.3718 29.5995C30.2218 28.5626 30.0863 27.9879 29.8308 26.9719C29.3325 24.9911 28.8988 23.9183 28.1305 22.0258C27.455 20.3617 26.8935 19.5085 26.1984 17.8525C25.6475 16.5398 25.5062 15.7328 24.8846 14.452C24.175 12.9898 23.5066 12.3196 22.7207 10.897C22.179 9.91628 21.8432 9.37851 21.4069 8.3466C21.0544 7.5131 20.6591 6.2149 20.5736 5.93002C20.5664 5.90598 20.5357 5.90018 20.52 5.91979C20.338 6.14762 19.5153 7.16225 18.8565 7.72834C17.9611 8.49771 17.3888 8.88058 16.3062 9.35129Z" fill="#0A5D69"/>
<path d="M5.87296 34.0048C6.24384 32.5529 7.1095 30.3724 7.1095 30.3724L9.81441 46.6019C9.81441 46.6019 9.35071 48.7659 7.95961 48.3795C7.10949 47.993 6.18209 47.2975 5.7184 46.3701C5.34396 45.6818 5.32976 45.2066 5.17741 44.438C4.93618 43.221 4.95077 42.5101 4.94556 41.2694C4.93926 39.768 5.05249 38.9198 5.24978 37.4421L5.2547 37.4052C5.4333 36.0674 5.53889 35.3125 5.87296 34.0048Z" fill="#0A5D69" stroke="#0A5D69" stroke-width="0.154567"/>
<path d="M12.7844 10.2458L12.7844 10.2458C13.2614 10.7229 13.5714 10.9879 13.9498 11.3114C14.0746 11.4181 14.2069 11.5312 14.3551 11.6603C14.9131 12.1467 15.4147 12.4485 15.8684 12.7214C15.9127 12.748 15.9565 12.7744 15.9999 12.8006C16.4847 13.0939 16.9283 13.3786 17.4191 13.8758C19.1651 15.6451 20.1437 16.7399 20.771 18.9914C21.5406 21.7531 22.6048 25.1689 24.3195 27.6431L24.3451 27.6801L24.3769 27.7119C24.5802 27.9152 24.806 28.1261 25.033 28.3381C25.0516 28.3555 25.0703 28.3729 25.0889 28.3902C25.3372 28.6223 25.5879 28.8578 25.8291 29.1013C26.3156 29.5925 26.7343 30.0883 26.9881 30.596C27.793 32.2056 28.7902 36.3731 28.7902 40.6511C28.7902 41.4458 28.8381 42.0908 28.8833 42.6974C28.89 42.7883 28.8967 42.8783 28.9032 42.9678C28.9524 43.649 28.9891 44.314 28.9465 45.1635C28.5657 47.8956 28.0341 49.9494 27.1921 52.7056C26.3936 54.9682 25.4814 56.7426 24.6065 58.3556C24.0551 58.2785 23.4758 58.1247 22.9769 57.9571C22.6807 57.8576 22.4198 57.7556 22.2179 57.6664C22.1168 57.6217 22.0334 57.5816 21.9693 57.5478C21.9476 57.5364 21.9289 57.5261 21.9131 57.5171C21.9091 57.5028 21.9045 57.4843 21.8994 57.4607C21.8871 57.4039 21.8762 57.337 21.8629 57.2517L21.858 57.2198C21.8466 57.1459 21.8335 57.061 21.8177 56.9757C21.7522 56.62 21.6046 56.0059 21.0021 55.7326C20.789 55.6284 20.5347 55.5731 20.3015 55.5318C20.1879 55.5117 20.0374 55.4887 19.8838 55.4651C19.7489 55.4445 19.6117 55.4235 19.495 55.4038C18.9216 55.3069 18.2904 55.1605 17.6706 54.8249C17.3274 54.639 16.8869 54.6768 16.585 54.9606C16.3093 55.2198 15.8891 55.5883 15.4422 55.8888C15.0662 56.1416 14.7315 56.3043 14.4753 56.3596C14.4102 56.2694 14.3741 56.155 14.3414 55.9818C14.3331 55.9382 14.325 55.8876 14.3161 55.8316C14.276 55.5806 14.2183 55.2198 14.0492 54.8802C13.7687 54.3168 13.4858 53.9145 13.1968 53.5357C13.1242 53.4405 13.0526 53.3484 12.9811 53.2566C12.7661 52.9802 12.5525 52.7056 12.3175 52.3528C12.0562 51.9605 11.8268 51.6426 11.6169 51.3518C11.176 50.7411 10.8213 50.2497 10.4383 49.4383C10.0733 48.1846 9.92038 47.0074 9.80476 45.742C9.77478 45.4139 9.74723 45.0784 9.71893 44.7338C9.63777 43.7453 9.55049 42.6824 9.3823 41.5076C9.06133 39.2657 8.73231 37.1949 8.42589 35.2903C8.3848 35.0349 8.34412 34.7825 8.30393 34.5332C8.04523 32.9281 7.80671 31.4483 7.60698 30.0847C7.44274 27.9909 7.35766 26.822 7.37795 24.7356C7.38201 24.3184 7.38274 23.9271 7.38344 23.5546C7.38699 21.6553 7.38962 20.2484 7.82772 18.4335L7.82775 18.4335L7.82913 18.4275C8.41497 15.8619 9.09881 14.4532 10.3924 12.1692C10.5442 11.9528 10.6894 11.7359 10.8316 11.5236C11.0553 11.1893 11.2715 10.8665 11.494 10.5747C11.6723 10.3409 11.8294 10.1624 11.9643 10.0464C12.0831 9.94419 12.1388 9.93018 12.141 9.92861C12.3542 9.92984 12.4725 9.9815 12.5445 10.0265C12.6134 10.0695 12.6521 10.1097 12.714 10.1739C12.7343 10.1949 12.7571 10.2186 12.7844 10.2458ZM13.1378 9.89237L13.1379 9.89229L13.1378 9.89237Z" fill="white" stroke="#0A5D69"/>
</svg>
